<svg xmlns="http://www.w3.org/2000/svg" viewBox="0 0 1440 800" width="100%" height="100%" preserveAspectRatio="xMidYMid slice">
  <defs>
    <linearGradient id="grad1" x1="0%" y1="0%" x2="100%" y2="0%">
      <stop offset="0%" style="stop-color:#4A90E2;stop-opacity:1" />
      <stop offset="100%" style="stop-color:#50E3C2;stop-opacity:1" />
    </linearGradient>
    <filter id="blur-filter" x="-20" y="-20" width="1500" height="850">
        <feGaussianBlur in="SourceGraphic" stdDeviation="15" />
    </filter>
  </defs>
  <rect width="1440" height="800" fill="url(#grad1)" />
  <g filter="url(#blur-filter)">
    <circle cx="200" cy="200" r="150" fill="#FFFFFF" fill-opacity="0.1"/>
    <circle cx="1000" cy="500" r="250" fill="#FFFFFF" fill-opacity="0.1"/>
    <circle cx="600" cy="700" r="100" fill="#FFFFFF" fill-opacity="0.1"/>
    <circle cx="1300" cy="100" r="200" fill="#FFFFFF" fill-opacity="0.1"/>
  </g>
  <path d="M0,550 C150,500 350,530 500,580 S800,650 950,600 S1250,500 1440,550 L1440,800 L0,800 Z" fill="rgba(0, 50, 100, 0.3)"/>
  <path d="M0,650 C200,600 400,680 550,650 S850,580 1000,620 S1300,680 1440,650 L1440,800 L0,800 Z" fill="rgba(0, 40, 80, 0.5)"/>
  <path d="M0,700 C180,680 380,720 520,710 S820,690 980,720 S1280,750 1440,730 L1440,800 L0,800 Z" fill="rgba(0, 20, 60, 0.7)"/>
</svg>